<?xml version="1.0" encoding="UTF-8"?>
<!DOCTYPE svg PUBLIC "-//W3C//DTD SVG 1.1//EN" "http://www.w3.org/Graphics/SVG/1.1/DTD/svg11.dtd">
<svg xmlns="http://www.w3.org/2000/svg" version="1.1" width="480px" height="480px" style="shape-rendering:geometricPrecision; text-rendering:geometricPrecision; image-rendering:optimizeQuality; fill-rule:evenodd; clip-rule:evenodd" xmlns:xlink="http://www.w3.org/1999/xlink">
<g><path style="opacity:0.996" fill="#142528" d="M 217.5,-0.5 C 232.167,-0.5 246.833,-0.5 261.5,-0.5C 351.777,11.0354 417.277,57.3688 458,138.5C 469.389,163.812 476.556,190.146 479.5,217.5C 479.5,232.167 479.5,246.833 479.5,261.5C 467.965,351.777 421.631,417.277 340.5,458C 315.188,469.389 288.854,476.556 261.5,479.5C 246.833,479.5 232.167,479.5 217.5,479.5C 127.223,467.965 61.7233,421.631 21,340.5C 9.61094,315.188 2.44427,288.854 -0.5,261.5C -0.5,246.833 -0.5,232.167 -0.5,217.5C 11.0354,127.223 57.3688,61.7233 138.5,21C 163.812,9.61094 190.146,2.44427 217.5,-0.5 Z M 143.5,60.5 C 154.913,70.4098 165.913,80.9098 176.5,92C 137,108.833 108.833,137 92,176.5C 81.3191,165.986 70.8191,155.319 60.5,144.5C 88.1878,116.479 115.854,88.4791 143.5,60.5 Z M 346.5,63.5 C 375.249,90.7478 403.583,118.581 431.5,147C 418.319,160.347 404.986,173.514 391.5,186.5C 376.669,146.842 350.669,117.008 313.5,97C 324.702,85.9651 335.702,74.7984 346.5,63.5 Z M 386.5,302.5 C 399.965,315.465 413.299,328.631 426.5,342C 398.333,370.167 370.167,398.333 342,426.5C 328.833,413.333 315.667,400.167 302.5,387C 342.083,370.25 370.083,342.084 386.5,302.5 Z M 96.5,313.5 C 116.817,350.471 146.817,376.471 186.5,391.5C 174.181,404.319 161.681,416.986 149,429.5C 120.986,401.653 93.1529,373.653 65.5,345.5C 75.8547,334.813 86.188,324.146 96.5,313.5 Z"/></g>
<g><path style="opacity:1" fill="#fdfdfd" d="M 239.5,120.5 C 239.5,149.833 239.5,179.167 239.5,208.5C 215.017,219.243 190.684,230.243 166.5,241.5C 190.082,200.66 214.416,160.327 239.5,120.5 Z"/></g>
<g><path style="opacity:1" fill="#b5b6b6" d="M 239.5,120.5 C 263.737,159.965 287.737,199.631 311.5,239.5C 311.44,240.043 311.107,240.376 310.5,240.5C 286.93,229.547 263.264,218.881 239.5,208.5C 239.5,179.167 239.5,149.833 239.5,120.5 Z"/></g>
<g><path style="opacity:1" fill="#928f8f" d="M 239.5,208.5 C 263.264,218.881 286.93,229.547 310.5,240.5C 311.107,240.376 311.44,240.043 311.5,239.5C 312.776,240.386 312.776,241.386 311.5,242.5C 287.833,256.667 264.167,270.833 240.5,285C 239.563,285.692 238.897,285.525 238.5,284.5C 239.498,259.339 239.831,234.005 239.5,208.5 Z"/></g>
<g><path style="opacity:1" fill="#b0b0b0" d="M 239.5,208.5 C 239.831,234.005 239.498,259.339 238.5,284.5C 214.133,270.655 190.133,256.322 166.5,241.5C 190.684,230.243 215.017,219.243 239.5,208.5 Z"/></g>
<g><path style="opacity:1" fill="#fcfcfc" d="M 239.5,298.5 C 239.83,318.674 239.497,338.674 238.5,358.5C 214.632,324.608 190.632,290.775 166.5,257C 190.706,270.778 215.04,284.611 239.5,298.5 Z"/></g>
<g><path style="opacity:1" fill="#918e8e" d="M 238.5,358.5 C 239.497,338.674 239.83,318.674 239.5,298.5C 263.96,284.611 288.294,270.778 312.5,257C 288.289,291.255 263.956,325.421 239.5,359.5C 238.893,359.376 238.56,359.043 238.5,358.5 Z"/></g>
</svg>
