<?xml version="1.0" encoding="UTF-8"?>
<!DOCTYPE svg PUBLIC "-//W3C//DTD SVG 1.1//EN" "http://www.w3.org/Graphics/SVG/1.1/DTD/svg11.dtd">
<svg xmlns="http://www.w3.org/2000/svg" version="1.1" width="1440px" height="1440px" style="shape-rendering:geometricPrecision; text-rendering:geometricPrecision; image-rendering:optimizeQuality; fill-rule:evenodd; clip-rule:evenodd" xmlns:xlink="http://www.w3.org/1999/xlink">
<g><path style="opacity:0.999" fill="#142528" d="M 682.5,-0.5 C 707.167,-0.5 731.833,-0.5 756.5,-0.5C 956.712,13.3634 1124.21,94.0301 1259,241.5C 1368.72,367.686 1428.89,514.686 1439.5,682.5C 1439.5,707.167 1439.5,731.833 1439.5,756.5C 1425.64,956.712 1344.97,1124.21 1197.5,1259C 1071.31,1368.72 924.314,1428.89 756.5,1439.5C 731.833,1439.5 707.167,1439.5 682.5,1439.5C 486.827,1426.24 321.994,1348.57 188,1206.5C 73.3355,1078.77 10.5022,928.766 -0.5,756.5C -0.5,731.833 -0.5,707.167 -0.5,682.5C 12.7639,486.827 90.4305,321.994 232.5,188C 360.234,73.3355 510.234,10.5022 682.5,-0.5 Z M 433.5,180.5 C 465.965,212.465 498.299,244.632 530.5,277C 414,329.5 329.5,414 277,530.5C 244.833,498.333 212.667,466.167 180.5,434C 265.035,349.632 349.368,265.132 433.5,180.5 Z M 1041.5,189.5 C 1126.76,273.097 1211.43,357.43 1295.5,442.5C 1255.5,483.167 1215.17,523.5 1174.5,563.5C 1130.59,443.101 1052.26,352.601 939.5,292C 973.701,257.965 1007.7,223.799 1041.5,189.5 Z M 1161.5,908.5 C 1201.63,948.132 1241.63,987.965 1281.5,1028C 1197,1112.5 1112.5,1197 1028,1281.5C 988.167,1241.67 948.333,1201.83 908.5,1162C 1025.05,1109.62 1109.38,1025.12 1161.5,908.5 Z M 291.5,939.5 C 352.41,1052.06 443.077,1130.4 563.5,1174.5C 525.5,1213.17 487.167,1251.5 448.5,1289.5C 363.833,1205.5 279.5,1121.17 195.5,1036.5C 227.521,1004.15 259.521,971.812 291.5,939.5 Z"/></g>
<g><path style="opacity:1" fill="#fdfdfd" d="M 709.5,674.5 C 708.833,657.5 708.167,640.5 707.5,623.5C 706.241,614.817 702.241,607.65 695.5,602C 673.167,589 650.833,576 628.5,563C 617.66,557.46 606.326,556.127 594.5,559C 571.167,571.667 547.833,584.333 524.5,597C 515.141,602.686 509.307,610.853 507,621.5C 506.333,649.167 506.333,676.833 507,704.5C 509.431,713.923 514.598,721.423 522.5,727C 546.005,740.587 569.671,753.92 593.5,767C 603.63,770.562 613.63,770.229 623.5,766C 671.205,737.81 719.871,711.143 769.5,686C 798.367,669.13 827.7,653.13 857.5,638C 866.342,636.874 875.008,637.541 883.5,640C 927.155,663.493 970.489,687.493 1013.5,712C 1018.97,717.108 1022.81,723.275 1025,730.5C 1025.67,779.833 1025.67,829.167 1025,878.5C 1023.12,889.098 1017.62,897.265 1008.5,903C 967.833,925.333 927.167,947.667 886.5,970C 875.447,975.123 864.114,975.789 852.5,972C 809.167,948 765.833,924 722.5,900C 716.169,894.508 712.002,887.675 710,879.5C 709.333,861.833 709.333,844.167 710,826.5C 728.419,816.04 746.919,805.707 765.5,795.5C 766.333,812.157 766.833,828.823 767,845.5C 768.728,854.127 772.895,861.294 779.5,867C 803.178,880.841 827.178,894.174 851.5,907C 861.343,911.269 871.343,911.602 881.5,908C 905.329,894.92 928.995,881.587 952.5,868C 959.303,863.18 963.803,856.68 966,848.5C 966.667,819.5 966.667,790.5 966,761.5C 963.118,750.622 956.618,742.788 946.5,738C 925.167,726.333 903.833,714.667 882.5,703C 873.346,699.459 864.013,698.792 854.5,701C 778.878,741.811 703.544,783.144 628.5,825C 613.625,832.653 598.958,832.319 584.5,824C 544.167,801.667 503.833,779.333 463.5,757C 456.859,751.544 452.359,744.711 450,736.5C 449.333,687.167 449.333,637.833 450,588.5C 452.166,580.342 456.666,573.842 463.5,569C 507.878,544.144 552.545,519.811 597.5,496C 609.524,492.954 620.858,494.621 631.5,501C 671.672,523.92 712.005,546.587 752.5,569C 758.845,574.526 763.011,581.359 765,589.5C 765.833,607.842 765.666,626.176 764.5,644.5C 746.3,654.766 727.966,664.766 709.5,674.5 Z"/></g>
<g><path style="opacity:1" fill="#6d7879" d="M 707.5,623.5 C 708.167,640.5 708.833,657.5 709.5,674.5C 709.44,675.043 709.107,675.376 708.5,675.5C 707.5,658.179 707.167,640.846 707.5,623.5 Z"/></g>
</svg>
