<svg width="1158" height="162" viewBox="0 0 1158 162" fill="none" xmlns="http://www.w3.org/2000/svg">
<path d="M893.052 125.675H879.792V6.67547H924.672C935.892 6.67547 945.015 10.0755 952.042 16.8755C959.182 23.5621 962.752 32.0055 962.752 42.2055C962.752 52.2921 959.182 60.7355 952.042 67.5355C945.015 74.2221 935.892 77.5655 924.672 77.5655H893.052V125.675ZM893.052 18.7455V65.4955H924.672C931.812 65.4955 937.649 63.2855 942.182 58.8655C946.829 54.3321 949.152 48.7221 949.152 42.0355C949.152 35.3488 946.829 29.7955 942.182 25.3755C937.649 20.9555 931.812 18.7455 924.672 18.7455H893.052ZM974.027 114.625C965.413 106.012 961.107 95.3588 961.107 82.6655C961.107 69.9721 965.413 59.3755 974.027 50.8755C982.753 42.2621 993.52 37.9555 1006.33 37.9555C1019.13 37.9555 1029.84 42.2621 1038.46 50.8755C1047.18 59.3755 1051.55 69.9721 1051.55 82.6655C1051.55 95.3588 1047.18 106.012 1038.46 114.625C1029.84 123.125 1019.13 127.375 1006.33 127.375C993.52 127.375 982.753 123.125 974.027 114.625ZM983.377 59.3755C977.257 65.6088 974.197 73.3721 974.197 82.6655C974.197 91.9588 977.257 99.7788 983.377 106.125C989.61 112.359 997.26 115.475 1006.33 115.475C1015.51 115.475 1023.16 112.359 1029.28 106.125C1035.4 99.8921 1038.46 92.0721 1038.46 82.6655C1038.46 73.2588 1035.4 65.4388 1029.28 59.2055C1023.16 52.9721 1015.51 49.8555 1006.33 49.8555C997.26 49.8555 989.61 53.0288 983.377 59.3755ZM1062.62 95.0755L1075.88 92.3555C1077.01 99.7221 1080.24 105.445 1085.57 109.525C1091.01 113.492 1098.15 115.475 1106.99 115.475C1115.37 115.475 1122.17 113.549 1127.39 109.695C1132.6 105.842 1135.21 100.912 1135.21 94.9055C1135.21 90.4855 1133.9 86.7455 1131.3 83.6855C1128.8 80.6255 1125.52 78.2455 1121.44 76.5455C1117.36 74.8455 1112.82 73.3721 1107.84 72.1255C1102.96 70.7655 1098.03 69.2921 1093.05 67.7055C1088.06 66.0055 1083.53 64.0221 1079.45 61.7555C1075.37 59.4888 1072.02 56.2588 1069.42 52.0655C1066.92 47.8721 1065.68 42.8288 1065.68 36.9355C1065.68 27.7555 1069.42 20.1621 1076.9 14.1555C1084.49 8.03547 1094.01 4.97547 1105.46 4.97547C1116.9 4.97547 1126.37 7.9788 1133.85 13.9855C1141.44 19.9921 1145.97 27.7555 1147.45 37.2755L1134.02 39.9955C1133 33.0821 1129.88 27.4721 1124.67 23.1655C1119.57 18.8588 1113.11 16.7055 1105.29 16.7055C1097.69 16.7055 1091.46 18.5755 1086.59 22.3155C1081.71 26.0555 1079.28 30.7588 1079.28 36.4255C1079.28 40.7321 1080.52 44.3588 1083.02 47.3055C1085.62 50.1388 1088.97 52.3488 1093.05 53.9355C1097.13 55.4088 1101.66 56.8255 1106.65 58.1855C1111.63 59.4321 1116.56 60.9055 1121.44 62.6055C1126.42 64.1921 1130.96 66.1755 1135.04 68.5555C1139.12 70.9355 1142.4 74.3355 1144.9 78.7555C1147.5 83.0621 1148.81 88.3321 1148.81 94.5655C1148.81 104.085 1144.78 111.962 1136.74 118.195C1128.69 124.315 1118.66 127.375 1106.65 127.375C1094.52 127.375 1084.49 124.485 1076.56 118.705C1068.62 112.925 1063.98 105.049 1062.62 95.0755Z" fill="white"/>
<path d="M66.7669 55.7297L50.0751 46.0684L0 75.0492V133.008L50.0751 161.989L100.153 133.008V42.848L127.972 26.7489L155.794 42.848V75.0492L127.972 91.1483L111.28 81.4901V107.247L127.972 116.909L178.047 87.9278V29.9693L127.972 0.988525L77.8968 29.9693V120.129L50.0751 136.228L22.2567 120.129V87.9278L50.0751 71.8288L66.7669 81.487V55.7297Z" fill="#6600FF"/>
<path fill-rule="evenodd" clip-rule="evenodd" d="M422.293 125.74H444.833V2.18854H422.293V125.74ZM277.389 37.9156C288.072 37.9156 296.929 42.207 303.933 50.7768C310.951 59.3466 314.447 69.9773 314.447 82.669C314.447 95.3606 310.938 105.991 303.933 114.561C296.916 123.131 288.072 127.422 277.389 127.422C269.824 127.422 263.25 125.088 257.693 120.405C252.241 115.618 248.236 109.161 245.667 101.035V159.132H223.127V39.5852H245.667V64.2902C248.223 56.1639 252.241 49.7594 257.693 45.0897C263.263 40.3026 269.824 37.9156 277.389 37.9156ZM269.198 106.878C275.315 106.878 280.494 104.596 284.72 100.03C288.946 95.3606 291.059 89.5692 291.059 82.669C291.059 75.7688 288.946 70.1991 284.72 65.6337C280.494 60.964 275.315 58.6162 269.198 58.6162C262.402 58.6162 256.793 60.8988 252.332 65.4642C247.884 70.0295 245.654 75.7557 245.654 82.6559C245.654 89.5561 247.884 95.3476 252.332 100.017C256.78 104.583 262.402 106.865 269.198 106.865V106.878ZM320.434 82.669C320.434 95.3606 324.83 105.991 333.621 114.561C342.413 123.131 353.383 127.422 366.518 127.422C379.653 127.422 390.623 123.131 399.414 114.561C408.206 105.991 412.602 95.3606 412.602 82.669C412.602 69.9773 408.206 59.3466 399.414 50.7768C390.623 42.207 379.653 37.9156 366.518 37.9156C353.383 37.9156 342.413 42.207 333.621 50.7768C324.83 59.3466 320.434 69.9773 320.434 82.669ZM350.317 100.03C345.974 95.3606 343.808 89.5692 343.808 82.669C343.808 75.7688 345.974 70.1991 350.317 65.6337C354.661 60.964 360.061 58.6162 366.518 58.6162C372.975 58.6162 378.375 60.8988 382.718 65.4642C387.062 70.0295 389.227 75.7557 389.227 82.6559C389.227 89.5561 387.062 95.3476 382.718 100.017C378.375 104.583 372.975 106.865 366.518 106.865C360.061 106.865 354.661 104.583 350.317 100.017V100.03ZM653.065 114.561C644.273 105.991 639.877 95.3606 639.877 82.669C639.877 69.9773 644.273 59.3466 653.065 50.7768C661.856 42.207 672.826 37.9156 685.961 37.9156C699.096 37.9156 710.066 42.207 718.858 50.7768C727.649 59.3466 732.045 69.9773 732.045 82.669C732.045 95.3606 727.649 105.991 718.858 114.561C710.066 123.131 699.096 127.422 685.961 127.422C672.826 127.422 661.869 123.131 653.065 114.561ZM663.239 82.669C663.239 89.5692 665.404 95.3606 669.748 100.03C674.091 104.596 679.491 106.878 685.948 106.878C692.405 106.878 697.805 104.596 702.149 100.03C706.492 95.3606 708.657 89.5692 708.657 82.669C708.657 75.7688 706.492 70.0295 702.149 65.4772C697.805 60.9119 692.405 58.6292 685.948 58.6292C679.491 58.6292 674.091 60.964 669.748 65.6468C665.404 70.2121 663.239 75.8862 663.239 82.682V82.669ZM792.034 37.9156C801.608 37.9156 809.291 41.2548 815.069 47.9333C820.965 54.6117 823.913 63.1293 823.913 73.4731V125.727H801.373V77.4775C801.373 71.9078 799.599 67.3425 796.025 63.7815C792.464 60.2205 788.016 58.4335 782.668 58.4335C776.655 58.4335 771.763 60.2205 767.981 63.7815C764.198 67.3425 762.307 71.9078 762.307 77.4775V125.727H739.767V39.5852H762.307V61.6293C764.537 54.2856 768.268 48.4941 773.498 44.2679C778.846 40.0417 785.016 37.9286 792.034 37.9286V37.9156ZM498.978 102.77L522.013 39.6635H544.892L497.478 159.21H474.599L486.625 128.818L451.394 39.6635H475.773L498.978 102.77ZM608.99 39.5852V61.1727C604.294 47.0854 592.698 39.5852 577.267 39.5852C553.971 39.5852 540.196 59.9336 540.196 81.3255C540.196 102.717 553.866 124.735 577.267 124.735C592.698 124.735 604.294 113.609 608.99 99.5216V116.048C608.99 123.066 606.707 128.844 602.142 133.409C597.576 137.975 592.02 140.257 585.445 140.257C576.537 140.257 569.923 135.81 565.58 126.901L545.375 137.583C549.158 144.601 554.558 150.21 561.575 154.449C568.593 158.675 576.55 160.788 585.445 160.788C598.581 160.788 609.55 156.51 618.342 147.927C627.134 139.357 631.529 128.727 631.529 116.035V39.5852H608.99ZM602.481 97.6955C598.137 102.039 592.685 104.204 586.124 104.204C579.563 104.204 574.436 102.039 570.093 97.6955C565.749 93.2475 563.584 87.7952 563.584 81.3385C563.584 74.8818 565.749 69.4817 570.093 65.1381C574.436 60.7945 579.771 58.6292 586.124 58.6292C592.476 58.6292 598.15 60.7945 602.481 65.1381C606.824 69.3643 608.99 74.7644 608.99 81.3385C608.99 87.9126 606.824 93.3649 602.481 97.6955Z" fill="white"/>
</svg>
