<svg width="80" height="80" viewBox="0 0 80 80" fill="none" xmlns="http://www.w3.org/2000/svg">
<g clip-path="url(#clip0_2776_3831)">
<rect width="80" height="80" rx="40" fill="white"/>
<path d="M50.6936 33.3034C50.2929 33.0727 49.8386 32.9513 49.3762 32.9513C48.9138 32.9513 48.4596 33.0727 48.0589 33.3034L42.0147 36.9017L37.9078 39.2484L31.8635 42.8467C31.4629 43.0774 31.0086 43.1989 30.5462 43.1989C30.0839 43.1989 29.6296 43.0774 29.229 42.8467L24.4246 40.0307C24.0304 39.7954 23.7026 39.4637 23.4721 39.0668C23.2416 38.6699 23.1161 38.2209 23.1073 37.7621V32.2083C23.0996 31.7462 23.2182 31.2908 23.4504 30.891C23.6825 30.4913 24.0193 30.1624 24.4246 29.9398L29.1515 27.202C29.5521 26.9713 30.0064 26.8498 30.4688 26.8498C30.9312 26.8498 31.3855 26.9713 31.7861 27.202L36.513 29.9398C36.9072 30.1751 37.235 30.5068 37.4655 30.9037C37.6959 31.3005 37.8215 31.7495 37.8303 32.2083V35.8066L41.9372 33.3817V29.7833C41.9449 29.3212 41.8262 28.8658 41.5941 28.4661C41.362 28.0664 41.0252 27.7375 40.6199 27.5149L31.8635 22.3522C31.4629 22.1214 31.0086 22 30.5462 22C30.0839 22 29.6296 22.1214 29.229 22.3522L20.3177 27.5149C19.9124 27.7375 19.5756 28.0664 19.3434 28.4661C19.1113 28.8658 18.9927 29.3212 19.0003 29.7833V40.1871C18.9927 40.6492 19.1113 41.1046 19.3434 41.5043C19.5756 41.904 19.9124 42.2329 20.3177 42.4555L29.229 47.6182C29.6296 47.849 30.0839 47.9705 30.5463 47.9705C31.0087 47.9705 31.463 47.849 31.8636 47.6182L37.9078 44.0982L42.0147 41.6733L48.0589 38.1532C48.4596 37.9225 48.9139 37.8011 49.3763 37.8011C49.8387 37.8011 50.2929 37.9225 50.6936 38.1532L55.4204 40.8911C55.8146 41.1264 56.1424 41.4581 56.3729 41.8549C56.6033 42.2518 56.7289 42.7008 56.7377 43.1595V48.7134C56.7454 49.1755 56.6268 49.6309 56.3946 50.0307C56.1625 50.4304 55.8257 50.7592 55.4204 50.9819L50.6936 53.798C50.2929 54.0287 49.8387 54.1501 49.3763 54.1501C48.9139 54.1501 48.4596 54.0287 48.0589 53.798L43.3321 51.0601C42.9378 50.8249 42.61 50.4932 42.3795 50.0963C42.149 49.6994 42.0235 49.2504 42.0147 48.7916V45.1934L37.9078 47.6182V51.2166C37.9001 51.6787 38.0187 52.1341 38.2508 52.5338C38.483 52.9335 38.8198 53.2624 39.2251 53.485L48.1364 58.6479C48.537 58.8786 48.9913 59 49.4537 59C49.9161 59 50.3703 58.8786 50.771 58.6479L59.6823 53.485C60.0765 53.2498 60.4043 52.9181 60.6348 52.5212C60.8653 52.1243 60.9909 51.6754 60.9997 51.2166V40.8128C61.0073 40.3507 60.8887 39.8953 60.6565 39.4956C60.4244 39.0959 60.0876 38.767 59.6823 38.5444L50.6936 33.3034Z" fill="url(#paint0_linear_2776_3831)"/>
</g>
<defs>
<linearGradient id="paint0_linear_2776_3831" x1="61" y1="21.9985" x2="16.2349" y2="55.1944" gradientUnits="userSpaceOnUse">
<stop stop-color="#00A3FF"/>
<stop offset="1" stop-color="#3AACFF" stop-opacity="0.48"/>
</linearGradient>
<clipPath id="clip0_2776_3831">
<rect width="80" height="80" rx="40" fill="white"/>
</clipPath>
</defs>
</svg>
